<svg xmlns="http://www.w3.org/2000/svg" width="325" height="350" viewBox="0 0 325 350">
  <metadata><?xpacket begin="﻿" id="W5M0MpCehiHzreSzNTczkc9d"?>
<x:xmpmeta xmlns:x="adobe:ns:meta/" x:xmptk="Adobe XMP Core 5.6-c138 79.159824, 2016/09/14-01:09:01        ">
   <rdf:RDF xmlns:rdf="http://www.w3.org/1999/02/22-rdf-syntax-ns#">
      <rdf:Description rdf:about=""/>
   </rdf:RDF>
</x:xmpmeta>





















<?xpacket end="w"?></metadata>
<defs>
    <style>
      .cls-1 {
        fill: #004b4c;
        fill-rule: evenodd;
        stroke: #004b4c;
        stroke-width: 10px;
      }
    </style>
  </defs>
  <path id="_" data-name="⌧" class="cls-1" d="M390.452,122.432H353.929l23.193-32.959-29.856.074-23.122,32.885H175.95L152.834,89.555l-29.862-.082,23.193,32.959H109.642V378.047h36.523l-23.193,32.959L153,411l22.95-32.953H324.144l23.105,33.032,29.873-.073-23.193-32.959h36.523V122.432ZM249.925,229.121l-56.4-81.543H306.565ZM336.6,353.145L265.062,250.117,336.6,147.578H365.55V353.145H336.6Zm-173.1,0H134.544V147.578H163.5l71.533,102.539Zm30.029,0,56.4-81.543,56.64,81.543H193.528ZM100,577" transform="translate(-87.547 -75.281)"/>
</svg>
